<?xml version="1.0" encoding="utf-8"?>
<!-- Generator: Adobe Illustrator 16.0.0, SVG Export Plug-In . SVG Version: 6.00 Build 0)  -->
<!DOCTYPE svg PUBLIC "-//W3C//DTD SVG 1.1//EN" "http://www.w3.org/Graphics/SVG/1.1/DTD/svg11.dtd">
<svg version="1.1" id="Ebene_1" xmlns="http://www.w3.org/2000/svg" xmlns:xlink="http://www.w3.org/1999/xlink" x="0px" y="0px"
	 width="25px" height="25px" viewBox="2.5 2.5 25 25" enable-background="new 2.5 2.5 25 25" xml:space="preserve">
<g id="Ebene_1_1_" display="none">
	<g display="inline">
		<g>
			<defs>
				<rect id="SVGID_1_" x="-21.922" y="-20.716" width="76.665" height="71.434"/>
			</defs>
			<clipPath id="SVGID_2_">
				<use xlink:href="#SVGID_1_"  overflow="visible"/>
			</clipPath>
			<path clip-path="url(#SVGID_2_)" fill="#EDEDED" d="M16.4,9.228c-3.181-0.03-5.786,2.526-5.815,5.708
				c-0.03,3.183,2.526,5.787,5.708,5.816c3.184,0.031,5.788-2.525,5.816-5.707C22.141,11.862,19.585,9.258,16.4,9.228 M16.32,17.909
				c-1.611-0.017-2.905-1.334-2.89-2.945c0.014-1.612,1.334-2.906,2.944-2.891c1.612,0.015,2.905,1.334,2.892,2.946
				C19.251,16.629,17.932,17.924,16.32,17.909"/>
		</g>
		<g>
			<defs>
				<rect id="SVGID_3_" x="-21.922" y="-20.716" width="76.665" height="71.434"/>
			</defs>
			<clipPath id="SVGID_4_">
				<use xlink:href="#SVGID_3_"  overflow="visible"/>
			</clipPath>
			<path clip-path="url(#SVGID_4_)" fill="#EDEDED" d="M16.273,3.524c-0.02,0-0.037,0-0.057,0l0,0H8.838H6.411H5.755
				c-0.524,0-0.954,0.429-0.954,0.954v0.584v1.879v8.056c0,6.334,5.135,11.471,11.473,11.471c6.334,0,11.47-5.137,11.47-11.471
				C27.743,8.66,22.607,3.524,16.273,3.524 M8.392,14.837c0.042-4.398,3.642-7.931,8.04-7.889s7.932,3.641,7.889,8.039
				c-0.041,4.398-3.641,7.932-8.038,7.889C11.883,22.834,8.351,19.234,8.392,14.837"/>
		</g>
	</g>
</g>
<g id="Ebene_1_Kopie">
	<g>
		<path id="innerer_Kreis" fill="#EDEDED" d="M15.125,8.776c-3.445-0.033-6.266,2.736-6.299,6.182
			c-0.033,3.447,2.735,6.266,6.183,6.298c3.446,0.034,6.267-2.734,6.297-6.18C21.338,11.629,18.571,8.809,15.125,8.776
			 M15.037,18.176c-1.747-0.016-3.147-1.443-3.13-3.189c0.015-1.745,1.446-3.146,3.188-3.13c1.747,0.016,3.148,1.444,3.132,3.19
			C18.209,16.793,16.782,18.193,15.037,18.176"/>
		<path fill="#EDEDED" d="M15.017,2.594c-0.021,0-0.04,0-0.06,0V2.593H6.965H4.336h-0.71c-0.568,0-1.032,0.465-1.032,1.033v0.632
			v2.034v8.724c0,6.858,5.562,12.422,12.423,12.422c6.859,0,12.421-5.563,12.421-12.422C27.438,8.155,21.876,2.594,15.017,2.594
			 M6.481,14.844c0.045-4.763,3.942-8.588,8.708-8.543c4.761,0.045,8.585,3.943,8.542,8.706c-0.045,4.763-3.945,8.589-8.704,8.542
			C10.262,23.505,6.437,19.607,6.481,14.844"/>
	</g>
</g>
</svg>
