<?xml version="1.0" encoding="utf-8"?>
<!-- Generator: Adobe Illustrator 16.0.0, SVG Export Plug-In . SVG Version: 6.00 Build 0)  -->
<!DOCTYPE svg PUBLIC "-//W3C//DTD SVG 1.1//EN" "http://www.w3.org/Graphics/SVG/1.1/DTD/svg11.dtd">
<svg version="1.1" id="Logo_FIXED" xmlns="http://www.w3.org/2000/svg" xmlns:xlink="http://www.w3.org/1999/xlink" x="0px" y="0px"
	 width="25px" height="25px" viewBox="2.5 2.5 25 25" enable-background="new 2.5 2.5 25 25" xml:space="preserve">
<path fill="#EDEDED" d="M10.387,25.104c9.385,0,14.518-7.777,14.518-14.518c0-0.221,0-0.44-0.016-0.66
	c1-0.722,1.861-1.617,2.546-2.641c-0.932,0.412-1.919,0.684-2.93,0.802c1.065-0.636,1.861-1.64,2.243-2.822
	c-1.001,0.595-2.099,1.013-3.239,1.239c-1.935-2.055-5.164-2.153-7.22-0.221c-1.325,1.246-1.889,3.103-1.477,4.875
	c-4.104-0.205-7.925-2.143-10.518-5.332c-1.353,2.332-0.661,5.314,1.581,6.813C5.063,12.615,4.27,12.396,3.56,12
	c0,0.021,0,0.044,0,0.065c0,2.428,1.712,4.521,4.093,5.001c-0.751,0.206-1.539,0.236-2.303,0.088
	c0.667,2.079,2.584,3.504,4.767,3.545c-1.807,1.42-4.039,2.188-6.337,2.188c-0.406-0.002-0.811-0.025-1.213-0.074
	c2.332,1.496,5.047,2.292,7.82,2.289"/>
</svg>
